<svg xmlns="http://www.w3.org/2000/svg" width="500" height="500" viewBox="0 0 500 500">
<g>
<path d="M 221.00 484.44 C178.37,478.39 141.69,463.16 107.03,437.11 C96.63,429.30 75.32,408.44 66.35,397.28 C44.94,370.66 29.22,339.19 20.93,306.38 C15.77,285.95 14.52,274.77 14.51,249.00 C14.51,222.75 15.59,213.76 21.64,189.57 C47.13,87.56 142.17,14.00 248.47,14.00 C275.55,14.00 297.72,17.59 323.42,26.13 C357.43,37.44 386.47,54.99 412.09,79.71 C451.32,117.58 475.58,163.87 483.49,216.00 C485.73,230.75 486.52,258.93 485.10,273.50 C479.75,328.41 453.91,382.13 414.82,419.60 C379.01,453.91 338.39,474.35 288.50,483.15 C273.32,485.82 235.84,486.54 221.00,484.44 ZM 242.00 413.35 L 242.00 356.69 L 228.25 357.31 C205.59,358.33 171.95,363.48 154.17,368.64 C147.77,370.50 147.75,370.05 155.01,386.31 C174.99,431.10 203.33,460.47 233.78,467.96 C238.03,469.00 241.61,469.89 241.75,469.93 C241.89,469.97 242.00,444.51 242.00,413.35 ZM 279.76 462.97 C289.39,458.44 295.20,454.59 302.93,447.65 C316.45,435.49 329.79,417.35 339.59,397.82 C344.85,387.33 351.00,372.90 351.00,371.04 C351.00,369.78 342.98,367.59 325.50,364.08 C305.75,360.12 289.69,358.07 272.25,357.31 L 258.00 356.69 L 258.00 413.25 L 258.00 469.80 L 264.75 468.33 C268.46,467.52 275.22,465.11 279.76,462.97 ZM 345.18 448.48 C359.92,441.22 370.08,435.04 382.49,425.78 C393.77,417.36 413.00,399.56 413.00,397.54 C413.00,394.53 367.90,373.50 366.08,375.65 C365.69,376.12 364.09,379.88 362.53,384.00 C358.43,394.84 348.63,414.16 342.25,424.00 C334.37,436.12 328.73,443.26 319.09,453.29 L 310.64 462.08 L 322.57 457.91 C329.13,455.62 339.31,451.37 345.18,448.48 ZM 182.81 455.25 C166.48,439.69 149.37,413.12 138.46,386.34 C136.11,380.57 133.95,375.62 133.67,375.33 C131.91,373.58 87.00,394.89 87.00,397.48 C86.99,399.41 106.51,417.55 117.24,425.59 C135.91,439.58 154.41,449.58 176.50,457.62 C181.45,459.43 186.25,460.92 187.18,460.95 C188.21,460.98 186.52,458.78 182.81,455.25 ZM 83.58 380.95 C93.06,375.15 114.51,365.18 124.24,362.05 C126.29,361.39 128.18,360.52 128.43,360.12 C128.68,359.72 127.77,355.59 126.42,350.94 C120.06,329.12 114.58,292.24 113.72,265.50 L 113.50 258.50 L 71.63 258.24 L 29.76 257.98 L 30.47 266.74 C33.30,302.00 44.69,337.05 62.59,365.61 C68.23,374.61 75.69,385.00 76.51,385.00 C76.76,385.00 79.94,383.18 83.58,380.95 ZM 435.89 367.87 C451.23,343.28 460.78,319.39 465.97,292.62 C467.86,282.89 470.00,265.83 470.00,260.54 L 470.00 258.00 L 428.55 258.00 L 387.09 258.00 L 386.60 261.25 C386.33,263.04 385.84,270.12 385.51,277.00 C384.45,299.32 379.28,331.33 373.53,351.10 C372.21,355.66 371.32,359.72 371.57,360.12 C371.82,360.52 373.71,361.39 375.76,362.05 C384.10,364.70 403.37,373.48 413.13,379.06 L 423.50 385.00 L 426.62 381.36 C428.34,379.35 432.51,373.28 435.89,367.87 ZM 185.50 346.56 C203.73,343.57 217.78,342.00 226.32,342.00 C229.84,342.00 234.81,341.71 237.36,341.36 L 242.00 340.73 L 242.00 299.36 L 242.00 258.00 L 185.35 258.00 L 128.69 258.00 L 129.35 271.83 C130.12,287.96 132.20,305.71 135.08,320.79 C137.23,332.03 141.38,349.23 142.90,353.24 L 143.80 355.60 L 157.15 352.31 C164.49,350.50 177.25,347.91 185.50,346.56 ZM 358.86 347.25 C365.91,320.97 371.00,286.61 371.00,265.34 L 371.00 258.00 L 314.50 258.00 L 258.00 258.00 L 258.00 299.41 L 258.00 340.83 L 265.25 341.37 C292.81,343.40 301.91,344.36 314.86,346.57 C322.91,347.94 334.67,350.35 341.00,351.92 C357.61,356.05 356.42,356.36 358.86,347.25 ZM 113.37 240.75 C113.70,239.51 113.98,235.22 113.99,231.22 C114.02,212.71 118.84,179.49 124.97,155.58 C127.09,147.28 128.53,140.20 128.16,139.83 C127.80,139.47 123.22,137.51 118.00,135.48 C108.01,131.61 91.26,123.48 82.04,118.03 L 76.57 114.80 L 74.23 117.65 C68.19,124.99 59.17,139.84 52.45,153.50 C44.07,170.53 38.33,186.98 34.62,204.60 C31.82,217.87 29.37,238.92 30.33,241.42 C30.87,242.82 35.47,243.00 71.85,243.00 L 112.77 243.00 L 113.37 240.75 ZM 242.00 201.10 L 242.00 159.27 L 237.36 158.64 C234.81,158.29 229.74,158.00 226.10,158.00 C211.87,158.00 174.65,152.45 155.48,147.47 C150.25,146.11 145.36,145.00 144.62,145.00 C143.72,145.00 142.20,149.02 140.18,156.75 C134.28,179.26 130.38,204.89 129.32,228.18 L 128.70 241.86 L 132.60 242.27 C134.74,242.50 160.24,242.74 189.25,242.81 L 242.00 242.93 L 242.00 201.10 ZM 368.57 242.39 L 371.30 241.71 L 370.67 228.10 C369.89,210.93 367.69,193.53 363.96,175.00 C359.96,155.08 357.08,145.00 355.40,145.00 C354.64,145.00 349.75,146.11 344.52,147.47 C325.42,152.43 287.99,157.97 273.39,157.99 C270.03,158.00 265.19,158.29 262.64,158.64 L 258.00 159.27 L 258.00 201.05 L 258.00 242.84 L 311.92 242.96 C341.58,243.02 367.07,242.77 368.57,242.39 ZM 469.26 235.00 C468.08,198.25 451.59,152.06 428.79,121.61 L 423.80 114.94 L 417.65 118.38 C406.58,124.57 391.68,131.71 382.00,135.47 C376.77,137.50 372.17,139.48 371.77,139.86 C371.37,140.24 371.93,143.47 373.01,147.03 C379.43,168.19 385.97,210.79 386.02,231.72 C386.03,240.47 386.45,241.59 390.00,242.29 C391.38,242.56 409.83,242.72 431.00,242.64 L 469.50 242.50 L 469.26 235.00 ZM 242.00 86.98 L 242.00 29.96 L 239.25 30.57 C213.06,36.34 191.73,52.37 173.06,80.28 C162.83,95.58 147.51,128.00 149.60,129.94 C150.67,130.93 168.23,135.10 183.00,137.87 C193.99,139.93 218.88,142.82 230.00,143.32 C233.57,143.48 237.74,143.70 239.25,143.81 L 242.00 144.00 L 242.00 86.98 ZM 279.90 142.48 C303.65,141.03 349.47,132.55 350.68,129.38 C350.93,128.74 349.52,124.32 347.55,119.56 C327.04,70.01 295.41,37.02 262.75,31.12 L 258.00 30.26 L 258.00 87.16 L 258.00 144.06 L 264.25 143.55 C267.69,143.28 274.73,142.79 279.90,142.48 ZM 136.06 119.25 C147.59,90.27 162.71,65.67 180.31,47.26 C189.65,37.49 189.67,37.50 173.00,43.68 C153.86,50.79 134.58,61.41 117.15,74.48 C106.53,82.43 86.99,100.60 87.00,102.50 C87.01,103.69 89.99,105.45 104.00,112.56 C112.97,117.12 131.13,124.85 133.13,124.96 C133.48,124.98 134.80,122.41 136.06,119.25 ZM 381.37 119.36 C391.44,115.27 408.03,106.90 412.34,103.74 C414.05,102.49 413.39,101.63 403.59,92.27 C386.01,75.49 365.86,61.41 345.00,51.34 C335.82,46.91 315.14,39.00 312.73,39.00 C312.08,39.00 314.95,42.49 319.10,46.75 C329.03,56.94 333.41,62.43 341.27,74.57 C348.49,85.69 356.67,101.58 362.49,115.77 C366.88,126.46 364.85,126.07 381.37,119.36 Z" fill="rgba(0,0,0,1)"/>
</g>
</svg>